<?xml version="1.0" standalone="no"?>
<!DOCTYPE svg PUBLIC "-//W3C//DTD SVG 1.1//EN" "http://www.w3.org/Graphics/SVG/1.1/DTD/svg11.dtd" >
<svg xmlns="http://www.w3.org/2000/svg" xmlns:xlink="http://www.w3.org/1999/xlink" version="1.1">
<metadata>
Created by FontForge 20161003 at Wed Mar 29 08:14:45 2017
 By www-data
 (c) Adam Ericsson. All Rights Reserved.
</metadata>
<defs>
<font id="Adam" horiz-adv-x="560" >
  <font-face 
    font-family="Adam"
    font-weight="400"
    font-stretch="normal"
    units-per-em="1000"
    panose-1="2 0 5 3 0 0 0 0 0 0"
    ascent="800"
    descent="-200"
    x-height="479"
    cap-height="680"
    bbox="-20 -212 891.999 752.999"
    underline-thickness="0"
    underline-position="0"
    stemh="20"
    stemv="20"
    unicode-range="U+0020-02DD"
  />
<missing-glyph horiz-adv-x="430" 
 />
    <glyph glyph-name=".notdef" horiz-adv-x="430" 
 />
    <glyph glyph-name=".notdef" horiz-adv-x="430" 
 />
    <glyph glyph-name="ltr65" unicode="A" horiz-adv-x="640" 
d="M39 6l281 639l281 -639l2 -6h22l-6 14l-290 660c-3 7 -15 7 -18 0l-290 -660l-6 -14h22z" />
    <glyph glyph-name="ltr66" unicode="B" horiz-adv-x="640" 
d="M440.693 346.183c64.6084 27.3516 109.307 86.3779 109.307 153.817c0 93 -85 170 -190 170l-239 -1c-6 0 -10 -4 -10 -10l-0.498047 -318.47l-0.501953 -9.53027l0.486328 -0.0488281l-0.486328 -310.951c0 -6 4 -10 10 -10h281c104 0 189 77 189 170
c0 80.833 -64.2148 149.579 -149.307 166.183zM130.485 349.039l-0.484375 300.96h230c93 0 170 -67 170 -150s-77 -150 -170 -150zM130.517 329.999l229.483 0.000976562h41c92 0 169 -67 169 -150s-77 -150 -169 -150l-270 -1z" />
    <glyph glyph-name="ltr67" unicode="C" horiz-adv-x="640" 
d="M581 154c-38 -69 -136 -134 -240 -134c-156 0 -281 143 -281 320s125 320 281 320c103 0 202 -64 238 -135l3 -5h22l-7 15c-38 75 -145 145 -256 145c-166 0 -301 -151 -301 -340s135 -340 301 -340c112 0 216 71 258 144l8 15h-23z" />
    <glyph glyph-name="ltr68" unicode="D" horiz-adv-x="680" 
d="M110 0h250h1c157 13 275 166 259 340c16 174 -102 327 -259 340h-1h-250c-6 0 -10 -4 -10 -10v-660c0 -6 4 -10 10 -10zM120 20v640h240c146 -13 254 -156 240 -319v-2c14 -163 -94 -306 -240 -319h-240z" />
    <glyph glyph-name="ltr69" unicode="E" horiz-adv-x="640" 
d="M570 680h-460c-6 0 -10 -4 -10 -10v-320v-20v-320c0 -6 4 -10 10 -10h460h10v20h-10h-450v310h327h10v20h-10h-327v310h450h10v20h-10z" />
    <glyph glyph-name="ltr70" unicode="F" horiz-adv-x="540" 
d="M510 680h-400c-6 0 -10 -4 -10 -10v-320v-20v-320v-10h20v10v320h280h10v20h-10h-280v310h390h10v20h-10z" />
    <glyph glyph-name="ltr71" unicode="G" horiz-adv-x="720" 
d="M362 330h278c0 -167 -125 -310 -279 -310c-155 0 -281 143 -281 320s126 320 281 320c105 1 203 -63 240 -135l3 -5h22l-7 15c-39 76 -145 146 -258 145c-165 0 -301 -151 -301 -340s136 -340 301 -340c164 0 299 151 299 340c0 6 -4 10 -10 10h-288h-10v-20h10z" />
    <glyph glyph-name="ltr72" unicode="H" horiz-adv-x="700" 
d="M600 330v20v320v10h-20v-10v-320h-460v320v10h-20v-10v-320v-20v-320v-10h20v10v320h460v-320v-10h20v10v320z" />
    <glyph glyph-name="ltr73" unicode="I" horiz-adv-x="240" 
d="M111 670v-660v-10h20v10v660v10h-20v-10z" />
    <glyph glyph-name="ltr74" unicode="J" horiz-adv-x="500" 
d="M400 670v-496c-1 -82 -81 -154 -180 -154c-101 0 -179 69 -180 154v10h-20v-10c1 -95 87 -174 200 -174c111 0 199 82 200 174v496v10h-20v-10z" />
    <glyph glyph-name="ltr75" unicode="K" horiz-adv-x="620" 
d="M221.137 330l341.863 -327l3 -3h29l-18 17l-338 323l338 323l18 17h-29l-3 -3l-341.863 -327h-101.137v320v10h-20v-10v-320v-20v-320v-10h20v10v320h101.137z" />
    <glyph glyph-name="ltr76" unicode="L" horiz-adv-x="520" 
d="M100 670v-660c0 -6 4 -10 10 -10h380h10v20h-10h-370v650v10h-20v-10z" />
    <glyph glyph-name="ltr77" unicode="M" horiz-adv-x="820" 
d="M120 10v614l281 -618c3 -7 15 -7 18 0l280 618l1 -614v-10h20v10l-1 660c0 10 -15 13 -19 4l-290 -640l-291 640c-4 9 -19 6 -19 -4v-660v-10h20v10z" />
    <glyph glyph-name="ltr78" unicode="N" horiz-adv-x="700" 
d="M120 10v629l461 -635c5 -7 18 -3 18 6l1 660v10h-20v-10l-1 -629l-461 635c-5 7 -18 3 -18 -6v-660v-10h20v10z" />
    <glyph glyph-name="ltr79" unicode="O" horiz-adv-x="720" 
d="M60 340c0 -189 136 -340 300 -340c165 0 300 151 300 340s-135 340 -300 340c-164 0 -300 -151 -300 -340zM80 340c0 177 126 320 280 320c155 0 280 -143 280 -320s-125 -320 -280 -320c-154 0 -280 143 -280 320z" />
    <glyph glyph-name="ltr80" unicode="P" horiz-adv-x="640" 
d="M100.487 330.951l-0.487305 -320.951v-10h20v10v320h282c109 0 198 78 198 174c0 97 -89 176 -198 176l-291 -1c-6 0 -10 -4 -10 -10l-0.498047 -328.471l-0.501953 -9.5293zM120 349.031v310.969h282c97 0 178 -69 178 -156c0 -86 -81 -154 -178 -154z" />
    <glyph glyph-name="ltr81" unicode="Q" horiz-adv-x="720" 
d="M60 340c0 -189 136 -340.002 300 -340.002c78.8564 0 150.86 34.4893 204.551 91.1328l77.4492 -88.1318l3 -3h27l-14 17l-79.2344 90.1631c50.3213 60.6562 81.2344 142.396 81.2344 232.838c0 189 -135 340 -300 340c-164 0 -300 -151 -300 -340zM80 339.998
c0 177 126 319.999 280 319.999c155 0 280 -143 280 -320c0 -84.1504 -28.2539 -160.615 -74.5527 -217.683l-52.4482 59.6826l-3 3h-27l14 -17l54.3584 -61.8555c-50.0078 -53.459 -117.254 -86.1436 -191.357 -86.1436c-154 0 -280 143 -280 320z" />
    <glyph glyph-name="ltr82" unicode="R" horiz-adv-x="660" 
d="M429.872 331.722c95.9004 11.9473 170.129 84.6055 170.129 172.277c0 97 -89 176 -199 176l-290 -1c-6 0 -10 -4 -10 -10l-0.498047 -328.471l-0.501953 -9.5293l0.487305 -0.0488281l-0.487305 -320.951v-10h20v10v320h277.964
c68.29 -46.3145 112.043 -93.3057 182.035 -323l3 -7h21l-4 13c-66.7568 214.511 -110.538 273.74 -170.128 318.723zM368.175 349.883l-248.175 -0.852539v310.969h281c98 0 179 -69 179 -156c0 -86 -81 -154 -178 -154h-34z" />
    <glyph glyph-name="ltr83" unicode="S" 
d="M499 505c0 95 -96 175 -219 175s-219 -80 -219 -175c1 -175 439 -173 439 -330c0 -85 -103 -155 -220 -155c-120 0 -220 69 -220 155v10h-20v-10c0 -94 104 -175 240 -175c133 0 240 82 240 175c1 176 -439 176 -439 330c0 87 90 155 199 155s199 -68 199 -155v-10h20v10
z" />
    <glyph glyph-name="ltr84" unicode="T" 
d="M291 680h-20h-241h-10v-20h10h241v-650v-10h20v10v650h239h10v20h-10h-239z" />
    <glyph glyph-name="ltr85" unicode="U" horiz-adv-x="640" 
d="M80 670v-454c0 -118 106 -216 240 -216s240 98 240 216l1 453l1 10h-22v-9v-454c0 -108 -98 -196 -220 -196s-220 88 -220 196l1 453l1 10h-22v-9z" />
    <glyph glyph-name="ltr86" unicode="V" horiz-adv-x="640" 
d="M21 666l291 -660c3 -7 15 -7 18 0l289 660l6 14h-22l-2 -6l-280 -639l-282 639l-2 6h-22z" />
    <glyph glyph-name="ltr87" unicode="W" horiz-adv-x="840" 
d="M20 668l144 -660c2 -9 16 -10 19 -1l237 634l237 -634c3 -9 17 -8 19 1l144 660l2 12h-20l-2 -8l-137 -627l-234 628c-3 8 -15 8 -18 0l-234 -628l-137 627l-2 8h-20z" />
    <glyph glyph-name="ltr88" unicode="X" 
d="M280 370.75l-222 305.25l-3 4h-25l12 -16l225.637 -310.25l-245.637 -337.75l-12 -16h25l3 4l242 332.75l242 -332.75l3 -4h25l-12 16l-245.637 337.75l225.637 310.25l12 16h-25l-3 -4z" />
    <glyph glyph-name="ltr89" unicode="Y" horiz-adv-x="540" 
d="M282 337.027l216 326.973l11 16h-24l-3 -4l-210 -318l-214 318l-3 4h-24l11 -16l220 -327.027v-326.973v-10h20v10v327.027z" />
    <glyph glyph-name="ltr90" unicode="Z" horiz-adv-x="520" 
d="M49 660h403l-430 -644c-5 -7 0 -16 8 -16h460h10v20h-10h-441l430 644c5 7 0 16 -8 16h-422h-10v-20h10z" />
    <glyph glyph-name="ltr97" unicode="a" horiz-adv-x="528" 
d="M40 240c0 -134 94 -240.002 208 -240.002c78.3203 0 147.348 54.2109 180 134.81v-124.809v-10h20v10v230v230v10h-20v-10v-124.809c-32.6523 80.5986 -101.68 134.81 -180 134.81c-114 0 -208 -106 -208 -240zM60 239.998c0 122 84 220 188 220c99 0 180 -99 180 -220
s-81 -220 -180 -220c-104 0 -188 98 -188 220z" />
    <glyph glyph-name="ltr98" unicode="b" 
d="M80 239v-228.999v-10h20v10v129.424c35.0254 -82.6182 112.153 -139.424 199.999 -139.424c121 0 220 106 220 240s-99 240 -220 240c-87.8457 0 -164.974 -56.8057 -199.999 -140.209v340.208v10h-20v-10v-441zM100 239.001c0 123 90 221 200 221
c111 0 200 -98 200 -220s-89 -220 -200 -220c-110 0 -200 98 -200 219z" />
    <glyph glyph-name="ltr99" unicode="c" horiz-adv-x="480" 
d="M422 106c-26 -37 -74 -86 -164 -86c-110 0 -198 98 -198 220s88 220 198 220c90 0 139 -43 164 -80l16 12c-27 39 -80 88 -180 88c-120 0 -218 -106 -218 -240s98 -240 218 -240c100 0 152 53 180 94z" />
    <glyph glyph-name="ltr100" unicode="d" 
d="M40 240c0 -134 100 -240 220 -240c88.4443 -0 165.135 56.6338 200 139.44v-129.44v-10h20v10v230v440v10h-20v-10v-339.44c-34.8652 82.8066 -111.556 139.44 -200 139.44c-120 0 -220 -106 -220 -240zM60 240c0 122 90 220 200 220c111 0 200 -98 200 -220
s-89 -220 -200 -220c-110 0 -200 98 -200 220z" />
    <glyph glyph-name="ltr101" unicode="e" horiz-adv-x="520" 
d="M436 109c-29 -39 -80 -90 -176 -89c-108.923 0 -195.146 92.6885 -199.802 210h409.802h10v10c0 134 -99 240 -220 240c-122 0 -220 -106 -220 -240s98 -240 220 -240c104 -1 161 54 192 97zM60.1982 250c4.65625 117.312 90.8789 210 199.802 210
c111 0 200 -98 200 -210h-399.802z" />
    <glyph glyph-name="ltr102" unicode="f" horiz-adv-x="300" 
d="M127.225 480c4.17383 113.388 63.085 171 142.775 171h10v20h-10c-89.748 0 -158.56 -59.9531 -162.803 -191h-77.1973h-10v-20h10h77v-450v-10h20v10v450h143h10v20h-10h-142.775z" />
    <glyph glyph-name="ltr103" unicode="g" 
d="M40 240c0 -134 100 -240 220 -240c88.4443 -0 165.135 56.6338 200 139.44v-129.44c0 -63 -80 -146 -199 -147h-10v-20h10c135 1 219 98 219 167l1 459l1 10h-22v-9v-129.44c-34.8652 82.8066 -111.556 139.44 -200 139.44c-120 0 -220 -106 -220 -240zM60 240
c0 122 90 220 200 220c111 0 200 -98 200 -220s-89 -220 -200 -220c-110 0 -200 98 -200 220z" />
    <glyph glyph-name="ltr104" unicode="h" horiz-adv-x="540" 
d="M100 368.885v247.115v10h-20v-10v-337v-10v-259v-10h20v10v259v10c0 99 75 181 170 181s170 -82 170 -181l1 -270l1 -10h19l-1 11v269c0 111 -85 201 -190 201c-74.4385 0 -138.825 -45.2334 -170 -111.115z" />
    <glyph glyph-name="ltr105" unicode="i" horiz-adv-x="200" 
d="M100 571h1h10v20h-10h-1h-10v-20h10zM90 470v-460v-10h20v10v460v10h-20v-10z" />
    <glyph glyph-name="ltr106" unicode="j" horiz-adv-x="262" 
d="M172 568h1h10v20h-10h-1h-10v-20h10zM162 470v-460c0 -90 -58 -166 -132 -166h-10v-20h10c82 0 152 82 152 186l1 459l1 10h-22v-9z" />
    <glyph glyph-name="ltr107" unicode="k" horiz-adv-x="480" 
d="M171.326 230l251.674 -227l3 -3h30l-19 17l-247 223l247 223l19 17h-30l-3 -3l-251.674 -227h-71.3262v430v10h-20v-10v-430v-20v-220v-10h20v10v220h71.3262z" />
    <glyph glyph-name="ltr108" unicode="l" horiz-adv-x="193" 
d="M80 680v-670v-10h20v10v670v10h-20v-10z" />
    <glyph glyph-name="ltr109" unicode="m" horiz-adv-x="792" 
d="M396 359.673c-22.9375 71.042 -82.7969 120.327 -153 120.327c-61.6348 0 -115.297 -37.9893 -143 -95.3379v85.3379v10h-20v-10v-175v-10v-275v-10h20v10v275v10c0 92 63 165 143 165s143 -73 143 -165v-10h0.0351562l0.964844 -276l1 -10h19l-1 11v275v10
c0 92 63 165 143 165s143 -73 143 -165l1 -286l1 -10h19l-1 11v285c0 104 -73 185 -163 185c-70.2031 0 -130.062 -49.2852 -153 -120.327z" />
    <glyph glyph-name="ltr110" unicode="n" horiz-adv-x="540" 
d="M460 10v269c0 111 -85 201 -190 201c-74.4385 0 -138.825 -45.2334 -170 -111.115v101.115v10h-20v-10v-191v-10v-259v-10h20v10v259v10c0 99 75 181 170 181s170 -82 170 -181l1 -270l1 -10h19z" />
    <glyph glyph-name="ltr111" unicode="o" horiz-adv-x="520" 
d="M40 240c0 -134 100 -240 220 -240c121 0 220 106 220 240s-99 240 -220 240c-120 0 -220 -106 -220 -240zM60 240c0 122 90 220 200 220c111 0 200 -98 200 -220s-89 -220 -200 -220c-110 0 -200 98 -200 220z" />
    <glyph glyph-name="ltr112" unicode="p" 
d="M100 338.3l0.000976562 131.7v10h-20v-10v-230v-406v-10h20v10v305.816c35.0254 -83.0107 112.153 -139.816 199.999 -139.816c121 0 220 106 220 240s-99 240 -219 240c-88.7119 0.739258 -165.947 -56.999 -201 -141.7zM100.001 240c2 123 91 221 201 220
c110 0 199 -98 199 -220s-89 -220 -200 -220c-110 0 -200 98 -200 220z" />
    <glyph glyph-name="ltr113" unicode="q" 
d="M40 240c0 -134 100 -240 220 -240c88.4443 -0 165.135 56.6338 200 139.44v-305.44v-10h20v10v406v230v10h-20v-10v-129.44c-34.8652 82.8066 -111.556 139.44 -200 139.44c-120 0 -220 -106 -220 -240zM60 240c0 122 90 220 200 220c111 0 200 -98 200 -220
s-89 -220 -200 -220c-110 0 -200 98 -200 220z" />
    <glyph glyph-name="ltr114" unicode="r" horiz-adv-x="338" 
d="M100 349.376v120.625v10h-20v-10v-225.437c-0.00976562 -1.51465 0 -3.03613 0 -4.56445v-10v-220v-10h20v10v220v10v4.56836c0.987305 139.104 92.3691 215.432 218 215.432h10v20h-10c-101.525 0 -182.245 -45.8789 -218 -130.624z" />
    <glyph glyph-name="ltr115" unicode="s" horiz-adv-x="452" 
d="M394 356c0 67 -73 124 -168 124s-168 -57 -168 -124c1 -136 334 -118 334 -232c0 -59 -77 -104 -166 -104s-166 45 -166 104h-20c0 -67 79 -124 186 -124s186 57 186 124c1 134 -334 118 -334 232c0 59 69 104 148 104s148 -45 148 -104h20z" />
    <glyph glyph-name="ltr116" unicode="t" horiz-adv-x="300" 
d="M128 460h142h10v20h-10h-142v105v10h-20v-10v-105h-78h-10v-20h10h78v-334c1 -80 57 -126 162 -126h10v20h-10c-89 0 -141 36 -142 106v334z" />
    <glyph glyph-name="ltr117" unicode="u" horiz-adv-x="507" 
d="M60 470v-295c0 -96 86 -175 194 -175s193 79 193 175l1 294l1 10h-22v-9v-295c0 -86 -77 -155 -173 -155s-174 69 -174 155l1 294l1 10h-22v-9z" />
    <glyph glyph-name="ltr118" unicode="v" horiz-adv-x="480" 
d="M41 466l191 -460l2 -6h14l2 6l189 460l6 14h-22l-2 -6l-180 -438l-182 438l-2 6h-22z" />
    <glyph glyph-name="ltr119" unicode="w" horiz-adv-x="720" 
d="M40 467l124 -460l2 -7h15l2 6l177 437l177 -437l2 -6h15l2 7l124 460l3 13h-21l-2 -7l-116 -432l-175 433l-2 6h-14l-2 -6l-175 -433l-116 432l-2 7h-21z" />
    <glyph glyph-name="ltr120" unicode="x" horiz-adv-x="480" 
d="M252.67 254.134l163.33 209.866l12 16h-25l-3 -4l-160 -205.587l-160 205.587l-3 4h-25l12 -16l163.33 -209.866l-185.33 -238.134l-12 -16h25l3 4l182 233.854l182 -233.854l3 -4h25l-12 16z" />
    <glyph glyph-name="ltr121" unicode="y" horiz-adv-x="440" 
d="M210.975 37.0635l-171.976 436.937l-2 6h-22l6 -14l179.381 -455.884c-53.127 -126.914 -90.1924 -166.116 -170.38 -166.116h-10v-20h10c85.7793 0 128.784 36.9414 187.483 176h0.516602l2 6l179 460l6 14h-22l-2 -6z" />
    <glyph glyph-name="ltr122" unicode="z" horiz-adv-x="440" 
d="M71 460h279l-308 -444l-11 -16h9h10h340h10v20h-10h-321l308 444l11 16h-9h-10h-298h-10v-20h10z" />
    <glyph glyph-name="ltr48" unicode="0" horiz-adv-x="502" 
d="M40 350c0 -197 96 -351 213 -351c114 0 209 154 209 351c0 196 -95 350 -209 350c-117 0 -213 -154 -213 -350zM52 350c0 184 88 338 201 338c110 0 197 -154 197 -338c0 -185 -87 -339 -197 -339c-113 0 -201 154 -201 339z" />
    <glyph glyph-name="ltr49" unicode="1" horiz-adv-x="284" 
d="M31 347l181 323v-665v-6h12v6v688v6h-10l-1 -3l-192 -343l-5 -9h14z" />
    <glyph glyph-name="ltr50" unicode="2" horiz-adv-x="502" 
d="M52 522c0 92 89 166 199 166s199 -74 199 -166c1 -209 -410 -309 -410 -517v-6h416h6v12h-6h-404c0 192 410 293 410 511c0 98 -93 178 -211 178s-211 -80 -211 -178v-6h12v6z" />
    <glyph glyph-name="ltr51" unicode="3" horiz-adv-x="500" 
d="M104 688h300l-169 -264l-6 -9h5h6c115 0 208 -88 208 -197c0 -114 -92 -207 -208 -207c-107 0 -181 63 -194 139l-1 5h-12l1 -7c15 -80 91 -149 206 -149c122 0 220 99 220 219c0 115 -97 209 -209 209l169 264l6 9h-5h-6h-311h-6v-12h6z" />
    <glyph glyph-name="ltr52" unicode="4" horiz-adv-x="500" 
d="M235 696l-215 -515l-3 -8h3h6l345 -1.6123v-166.388v-6h12v6v166.332l71 -0.332031h6v12h-6l-71 0.338867v333.661v6h-12v-6v-333.604l-336 1.60352l212 507l3 8h-13z" />
    <glyph glyph-name="ltr53" unicode="5" horiz-adv-x="520" 
d="M426 700h-273h-5l-1 -4l-82 -301l-3 -8h1h12h1l1.34668 4.94434c21.5 57.6729 99.1094 114.056 182.653 114.056c116 0 208 -111 208 -247s-92 -248 -208 -248c-103 0 -181 79 -194 159l-1 5h-12l1 -7c13 -84 97 -169 206 -169c122 0 220 116 220 260s-98 259 -220 259
c-69.3203 0 -133.895 -36.1875 -170.419 -81.1475l68.4189 251.147h268h6v12h-6z" />
    <glyph glyph-name="ltr54" unicode="6" horiz-adv-x="502" 
d="M249 700c-99 -40 -210.002 -243.001 -209.002 -470.001v-0.507812v-0.492188v-6h0.0927734c3.3291 -125.671 96.0322 -224 210.908 -224c117 0 211 102 211 230c0 127 -94 228 -211 228c-87.001 0 -161.284 -56.3994 -193.657 -137.128
c22.4854 182.986 112.044 335.373 195.658 368.129l4 2v13zM51.999 229.491c0.244141 117.78 88.1543 215.508 199 215.508c111 0 199 -97 199 -216c0 -120 -88 -218 -199 -218c-110.845 0 -198.754 97.7256 -199 218.492z" />
    <glyph glyph-name="ltr55" unicode="7" horiz-adv-x="444" 
d="M26 688h381c-145 -231 -243 -429 -292 -682l-1 -7h12l1 5c49 251 147 449 296 687l6 9h-5h-398h-6v-12h6z" />
    <glyph glyph-name="ltr56" unicode="8" horiz-adv-x="502" 
d="M40 202c0 -111 94 -201.999 211 -201.999s211 91 211 202c0 94.5 -66.9199 175.474 -157.511 198.471c74.8789 18.9971 128.511 77.5703 128.511 145.529c0 85 -80 154 -181 154c-102 0 -183 -69 -183 -154c0 -67.9199 54.2402 -126.465 129.843 -145.497
c-91.8594 -22.9531 -158.843 -103.959 -158.843 -198.504zM81 546.001c0 79 76.998 141.999 170.998 141.999c93 0 169 -63 169 -142c0 -72.959 -68.2324 -133.349 -154.507 -139.486c-4.78809 0.322266 -9.62109 0.486328 -14.4922 0.486328
c-4.94043 0 -9.83887 -0.163086 -14.6904 -0.483398c-87.2002 6.15332 -156.309 66.5361 -156.309 139.484zM266.604 394.485c103.081 -7.29688 183.393 -91.2227 183.393 -192.486c0 -105 -88 -190 -199 -190s-199 85 -199 190c0 101.281 80.3398 185.217 185.191 192.489
c4.88184 -0.323242 9.82031 -0.488281 14.8096 -0.488281c4.9209 0 9.79199 0.164062 14.6064 0.485352z" />
    <glyph glyph-name="ltr57" unicode="9" horiz-adv-x="502" 
d="M462 474.504v0.495117v6h-0.0966797c-3.40625 122.684 -96.0781 219 -210.903 219c-117 0 -211 -100 -211 -225c0 -123 94 -223 212 -223c65.4473 0 123.892 31.5137 162.401 81.251c-41.9688 -105.805 -113.012 -231.616 -168.401 -325.251l-6 -9h14l2 3
c69.0869 115.681 160.116 279.118 193.248 395.956c7.74902 22.5127 12.1914 46.7666 12.7021 72.1191c0.0332031 1.32324 0.0498047 2.63184 0.0498047 3.92578v0.503906zM449.999 474.503c-0.00390625 -1.59863 -0.0234375 -3.19531 -0.0605469 -4.78613
c-0.518555 -18.5107 -4.33008 -39.9707 -10.708 -63.5303c-26.6836 -82.5107 -100.047 -142.188 -187.23 -142.188c-112 0 -200 94 -200 211s88 213 199 213c110.842 0 198.749 -95.7266 198.999 -213.496z" />
    <glyph glyph-name="space" unicode=" " horiz-adv-x="430" 
 />
    <glyph glyph-name="ltr33" unicode="!" horiz-adv-x="240" 
d="M100 4v-1v-5h10v5v1v5h-10v-5zM100 675v-502v-5h10v5v502v5h-10v-5z" />
    <glyph glyph-name="ltr34" unicode="&#x22;" horiz-adv-x="340" 
d="M250 675v-167v-5h10v5v167v5h-10v-5zM80 675v-167v-5h10v5v167v5h-10v-5z" />
    <glyph glyph-name="ltr35" unicode="#" horiz-adv-x="600" 
d="M477.478 504h97.5225h5v10h-5h-95.4326l33.4326 160l1 6h-10l-1 -4l-33.8506 -162h-264.582l33.4326 160l1 6h-10l-1 -4l-33.8506 -162h-169.149h-5v-10h5h167.06l-67.9102 -325h-99.1494h-5v-10h5h97.0596l-34.0596 -163l-1 -6h10l1 4l34.4775 165h264.582
l-34.0596 -163l-1 -6h10l1 4l34.4775 165h167.522h5v10h-5h-165.433zM467.06 504l-67.9102 -325h-264.582l67.9102 325h264.582z" />
    <glyph glyph-name="ltr36" unicode="$" 
d="M285 679.957v68.042v5h-10v-5v-68.043c-120.618 -2.08008 -215 -79.2344 -215 -171.957c0.484375 -83.8369 106.18 -126.576 215 -167.14v-330.821c-123.739 1.90039 -225 74.1416 -225 161.962h-10c0 -91.8398 103.373 -170.027 235 -171.963v-68.0371v-5h10v5v68.0381
c129.717 1.98828 235 81.126 235 171.962c0.515625 89.6719 -119.018 133.131 -235 176.367v321.588c112.74 -2.05078 205 -73.2627 205 -161.955h10c0 92.7227 -94.3818 169.877 -215 171.957zM285 337.139c112.5 -41.7988 225 -82.5479 225 -165.14
c0 -86.8145 -103.164 -160.004 -225 -161.96v327.1zM275 352.1c-105.453 39.4375 -205 79.79 -205 155.899c0 88.6924 92.2598 159.904 205 161.955v-317.854z" />
    <glyph glyph-name="ltr37" unicode="%" horiz-adv-x="640" 
d="M315 148c3 -108 65 -149 139 -148c79 1 140 49 140 152c0 106 -61 156 -141 157c-75 1 -139 -51 -138 -161zM325 148c-1 102 57 152 128 151c74 -1 131 -49 131 -147c0 -95 -57 -141 -130 -142c-70 -1 -126 38 -129 138zM186 670c69 -1 129 -43 127 -140
c2 -100 -57 -146 -127 -146c-72 0 -136 46 -136 145c0 96 64 142 136 141zM186 680c-78 1 -146 -47 -146 -151c0 -107 69 -155 146 -155c74 0 139 48 137 156c2 105 -62 149 -137 150zM591 678l-550 -670l-7 -8h13l2 2l550 670l7 8h-13z" />
    <glyph glyph-name="ltr38" unicode="&#x26;" horiz-adv-x="640" 
d="M200.107 419.337c60.5645 -85.8223 152.354 -192.689 248.087 -288.171c-47.8184 -63.3477 -108.267 -122.166 -200.194 -122.166c-197 -1 -254 165 -199 281c24.9424 49.0254 87.6123 90.6533 151.107 129.337zM455.275 124.132
c45.8193 -45.3359 92.3828 -87.8896 136.723 -124.129l1 -1h16l-11 9c-44.0977 36.3154 -90.6719 78.9395 -136.581 124.286c2.90137 3.89941 5.76074 7.80762 8.58105 11.7129c50 70 84 142 125 143h5v10h-5c-43 -1 -81 -73 -133 -147
c-2.53516 -3.5498 -5.10352 -7.10156 -7.70898 -10.6465c-95.0781 94.6357 -186.596 200.188 -246.507 284.645c7.77148 4.70605 15.5332 9.37012 23.2168 14.001c76 43 143 83 142 125c0 80 -72 118 -125 117c-52 -1 -118 -33 -120 -118
c-0.31543 -26.1777 25.0332 -74.8359 66.4141 -134.523c-64.0449 -39.1973 -128.417 -82.6221 -153.413 -133.477c-59 -120 0 -296 207 -295c95.3262 0 157.684 60.168 207.275 125.131zM202.059 432.143c-39.9385 57.3564 -64.3701 104.157 -64.0605 129.86
c2 77 62 107 110 108c49 1 115 -33 115 -107c1 -40 -66 -76 -137 -117h-1c-7.57227 -4.56445 -15.2422 -9.18262 -22.9395 -13.8604z" />
    <glyph glyph-name="ltr39" unicode="'" horiz-adv-x="160" 
d="M60 675v-166v-5h10v5v166v5h-10v-5z" />
    <glyph glyph-name="ltr40" unicode="(" horiz-adv-x="280" 
d="M231 698c-114 -125 -190 -243 -191 -448s90 -354 192 -449l1 -1h15l-10 9c-100 93 -189 240 -188 441s77 319 189 442l7 8h-13z" />
    <glyph glyph-name="ltr41" unicode=")" horiz-adv-x="280" 
d="M41 692c112 -123 189 -262 189 -442s-98 -343 -189 -442l-7 -8h13l2 2c91 99 191 266 191 448s-77 323 -191 448l-2 2h-13z" />
    <glyph glyph-name="ltr42" unicode="*" horiz-adv-x="500" 
d="M250 516.653l-97 161.347l-2 4l-9 -5l3 -5l95.5889 -159h-195.589h-5v-10h5h196.792l-96.792 -161l-3 -5l9 -5l2 4l97 161.347l97 -161.347l2 -4l9 5l-3 5l-96.792 161h196.792h5v10h-5h-195.589l95.5889 159l3 5l-9 5l-2 -4z" />
    <glyph glyph-name="ltr43" unicode="+" horiz-adv-x="460" 
d="M235 335h180h5v10h-5h-180v164v5h-10v-5v-164h-180h-5v-10h5h180v-162v-5h10v5v162z" />
    <glyph glyph-name="ltr44" unicode="," horiz-adv-x="240" 
d="M150 45c-9 -52 -29 -98 -68 -124l-13 -9h18l1 1c41 28 63 76 72 130l1 6h-10z" />
    <glyph glyph-name="ltr45" unicode="-" horiz-adv-x="340" 
d="M45 231h250h5v10h-5h-250h-5v-10h5z" />
    <glyph glyph-name="ltr46" unicode="." horiz-adv-x="240" 
d="M100 4v-1v-5h10v5v1v5h-10v-5z" />
    <glyph glyph-name="ltr47" unicode="/" horiz-adv-x="300" 
d="M270 677l-250 -671l-2 -7h10l2 3l250 671l2 7h-10z" />
    <glyph glyph-name="ltr58" unicode=":" horiz-adv-x="160" 
d="M77 73v-1v-5h10v5v1v5h-10v-5zM77 430v-1v-5h10v5v1v5h-10v-5z" />
    <glyph glyph-name="ltr59" unicode=";" horiz-adv-x="160" 
d="M110 34c-9 -61 -29 -114 -68 -145l-11 -9h16l1 1c41 33 63 88 72 151l1 6h-10zM76 430v-1v-5h10v5v1v5h-10v-5z" />
    <glyph glyph-name="ltr60" unicode="&#x3c;" horiz-adv-x="540" 
d="M493 513l-450 -168l-3 -2v-6l3 -2l450 -168l7 -2v10l-3 2l-438 163l438 163l3 2v10z" />
    <glyph glyph-name="ltr61" unicode="=" horiz-adv-x="540" 
d="M45 199h450h5v10h-5h-450h-5v-10h5zM45 444h450h5v10h-5h-450h-5v-10h5z" />
    <glyph glyph-name="ltr62" unicode="&#x3e;" horiz-adv-x="540" 
d="M43 503l438 -163l-438 -163l-3 -2v-10l7 2l450 168l3 2v6l-3 2l-450 168l-7 2v-10z" />
    <glyph glyph-name="ltr63" unicode="?" horiz-adv-x="460" 
d="M226 5v-2v-5h10v5v2v5h-10v-5zM50 509c0 103 85 162 180 161c94 -1 180 -61 180 -162c1 -122 -184 -136 -184 -293c-1 -26 0 -36 0 -43v-5h10v5c0 7 -1 17 0 43c0 147 184 162 184 293c0 107 -90 171 -190 172c-101 1 -190 -62 -190 -171v-5h10v5z" />
    <glyph glyph-name="ltr91" unicode="[" horiz-adv-x="340" 
d="M315 680h-210h-5v-5v-870v-5h5h210h5v10h-5h-205v860h205h5v10h-5z" />
    <glyph glyph-name="ltr92" unicode="\" horiz-adv-x="300" 
d="M20 693l250 -710l1 -3h11l-2 7l-250 710l-1 3h-11z" />
    <glyph glyph-name="ltr93" unicode="]" horiz-adv-x="360" 
d="M45 670h205v-860h-205h-5v-10h5h210h5v5v870v5h-5h-210h-5v-10h5z" />
    <glyph glyph-name="ltr94" unicode="^" horiz-adv-x="460" 
d="M49 338l182 327l180 -327l1 -3h11l-4 7l-184 335l-1 3h-6l-1 -3l-186 -335l-4 -7h11z" />
    <glyph glyph-name="ltr95" unicode="_" horiz-adv-x="520" 
d="M-15 -200h550h5v10h-5h-550h-5v-10h5z" />
    <glyph glyph-name="ltr96" unicode="`" horiz-adv-x="220" 
d="M61 672l110 -166l1 -2h12l-5 8l-110 166l-1 2h-12z" />
    <glyph glyph-name="ltr123" unicode="{" horiz-adv-x="400" 
d="M375 720c-102 0 -144 -126 -145 -230c-2 -102 -49 -179 -108 -226l-2 -2v-5c65 -48 108 -120 110 -223c1 -110 44 -232 145 -234h5v10h-5c-97 2 -134 122 -135 224c-2 107 -47 181 -107 226c56 45 105 124 107 230c1 96 37 220 135 220h5v10h-5z" />
    <glyph glyph-name="ltr124" unicode="|" horiz-adv-x="200" 
d="M80 695v-902v-5h10v5v902v5h-10v-5z" />
    <glyph glyph-name="ltr125" unicode="}" horiz-adv-x="400" 
d="M25 710c104 -1 118 -123 119 -220c6 -107 71 -196 122 -230c-51 -38 -116 -109 -122 -226c-1 -110 -11 -224 -119 -224h-5v-10h5c112 0 128 114 129 234c6 113 69 182 124 222l2 1v6c-57 39 -120 124 -126 227c-1 105 -21 229 -129 230h-5v-10h5z" />
    <glyph glyph-name="ltr126" unicode="~" horiz-adv-x="500" 
d="M30 212c1 41 31 100 109 100c79 -1 146 -105 223 -105s118 60 118 111v5h-10v-5c0 -47 -37 -101 -108 -101c-70 -1 -139 105 -223 105c-86 0 -118 -65 -119 -110v-5h10v5z" />
    <glyph glyph-name="ltr64" unicode="@" horiz-adv-x="1030" 
d="M481 471c72.3779 0.87207 133.35 -65.9336 125.226 -166.598c-4.4668 -21.9619 -8.37598 -41.0049 -12.3018 -59.9082c-34.0566 -108.281 -96.7744 -200.613 -189.924 -203.494c-99 -2 -168 82 -126 215c40 149 120 216 203 215zM481 480.999
c-85 1 -171.001 -66.002 -213.001 -223.002c-44 -143 31 -229 136 -227c79.1924 2.35254 138.097 65.5693 176.713 150.604c-6.05566 -28.5742 -13.1914 -62 -22.7129 -106.603c-19 -91 -12 -211 195 -49c63 45 139 157 139 271c0 222 -184 403 -411 403
c-232 0 -421 -199 -421 -443s189 -442 421 -442c209 0 335 82 398 160l3 4l-8 6l-3 -4c-61 -76 -185 -156 -390 -156c-226 0 -411 194 -411 432s185 433 411 433c221 0 401 -177 401 -393c0 -110 -74 -220 -135 -263c-23 -18 -198 -48 -179 39
c17.2207 80.666 26.6377 124.775 35.9756 169.743c1.38672 4.3916 2.72852 8.81152 4.02539 13.2568c4.29688 16.2324 6.99805 31.8096 8.27539 46.6543c8.36328 41.1279 18.6855 92.5098 34.7236 172.346l1 5l-10 2l-1 -5
c-10.6943 -53.2344 -18.8467 -93.8174 -25.5723 -127.145c-10.6797 81.9385 -69.4893 131.891 -134.427 131.145z" />
    <glyph glyph-name="ltr715" unicode="&#x2cb;" horiz-adv-x="200" 
d="M42 671l110 -105l1 -1h14l-9 9l-110 105l-1 1h-14z" />
    <glyph glyph-name="ltr168" unicode="&#xa8;" horiz-adv-x="260" 
d="M220 675v1v5h-10v-5v-1v-5h10v5zM50 675v1v5h-10v-5v-1v-5h10v5z" />
    <glyph glyph-name="ltr714" unicode="&#x2ca;" horiz-adv-x="200" 
d="M152 679l-110 -105l-9 -9h14l1 1l110 105l9 9h-14z" />
    <glyph glyph-name="ltr184" unicode="&#xb8;" horiz-adv-x="280" 
d="M135 -5l-24 -62l-2 -7h2h5c61 0 114 -18 114 -58c0 -33 -42 -58 -90 -58l-94 -1l-5 1l-1 -9l5 -1h95c56 0 100 31 100 68c0 44 -53 68 -117 68l22 55l2 7h-10z" />
    <glyph glyph-name="ltr710" unicode="&#x2c6;" horiz-adv-x="280" 
d="M49 567l91 101l91 -101l2 -2h13l-7 8l-95 105l-2 2h-4l-2 -2l-95 -105l-7 -8h13z" />
    <glyph glyph-name="ltr711" unicode="&#x2c7;" horiz-adv-x="280" 
d="M41 672l95 -105l2 -2h4l2 2l95 105l7 8h-13l-2 -2l-91 -101l-91 101l-2 2h-13z" />
    <glyph glyph-name="ltr713" unicode="&#x2c9;" horiz-adv-x="280" 
d="M45 565h190h5v10h-5h-190h-5v-10h5z" />
    <glyph glyph-name="ltr717" unicode="&#x2cd;" horiz-adv-x="280" 
d="M45 -120h190h5v10h-5h-190h-5v-10h5z" />
    <glyph glyph-name="ltr728" unicode="&#x2d8;" horiz-adv-x="300" 
d="M40 675c0 -48 50 -89 110 -89c61 0 110 41 110 89h-10c0 -44 -45 -79 -100 -79c-54 0 -100 35 -100 79h-10z" />
    <glyph glyph-name="ltr729" unicode="&#x2d9;" horiz-adv-x="280" 
d="M145 675v1v5h-10v-5v-1v-5h10v5z" />
    <glyph glyph-name="ltr730" unicode="&#x2da;" horiz-adv-x="240" 
d="M40 612c0 -36 36 -68 80 -68s80 32 80 68c0 37 -36 68 -80 68s-80 -31 -80 -68zM50 612c0 33 32 58 70 58s70 -25 70 -58c0 -32 -32 -58 -70 -58s-70 26 -70 58z" />
    <glyph glyph-name="ltr731" unicode="&#x2db;" horiz-adv-x="220" 
d="M107 -5c0 0 -67 -57 -67 -97c0 -41 51 -97 137 -58l5 3l-5 9l-4 -2c-72 -33 -123 11 -123 48c1 35 63 89 63 89l4 3l-6 8z" />
    <glyph glyph-name="ltr732" unicode="&#x2dc;" horiz-adv-x="340" 
d="M50 612c0 32 26 58 58 58c58 -1 57 -63 124 -63c38 0 68 30 68 68h-10c0 -32 -26 -58 -58 -58c-56 -1 -57 63 -124 63c-38 0 -68 -30 -68 -68h10z" />
    <glyph glyph-name="ltr733" unicode="&#x2dd;" horiz-adv-x="320" 
d="M271 678l-92 -105l-7 -8h13l2 2l92 105l7 8h-13zM133 678l-92 -105l-7 -8h13l2 2l92 105l7 8h-13z" />
    <glyph glyph-name="ltr727" unicode="&#x2d7;" horiz-adv-x="320" 
d="M45 180h230h5v10h-5h-230h-5v-10h5z" />
    <glyph glyph-name="ltr305" unicode="&#x131;" horiz-adv-x="200" 
d="M105 5v470v5h-10v-5v-470v-5h10v5z" />
  </font>
</defs>
</svg>
